<?xml version="1.0" encoding="UTF-8"?>
<svg id="Camada_2" data-name="Camada 2" xmlns="http://www.w3.org/2000/svg" viewBox="0 0 320.88 56.07">
  <defs>
    <style>
      .cls-1 {
        fill: #999;
        fill-rule: evenodd;
      }
    </style>
  </defs>
  <g id="Camada_1-2" data-name="Camada 1">
    <path class="cls-1" d="M55.52,0c9.5,0,17.21,7.7,17.21,17.21,0,5.82-2.89,10.97-7.32,14.08,4.13,1.57,7.8,4.09,10.72,7.3,1.07-.62,2.19-1.17,3.36-1.62-4.07-2.71-6.75-7.34-6.75-12.59,0-8.35,6.77-15.12,15.12-15.12s15.12,6.77,15.12,15.12c0,5.25-2.68,9.88-6.75,12.59,7.95,3.06,13.8,10.34,14.8,19.09h-4.18c-1.31-9.32-9.31-16.5-19-16.5-3.32,0-6.44.84-9.16,2.32,2.73,4.09,4.41,8.94,4.65,14.17h-4.95c-.67-12.06-10.66-21.64-22.88-21.64s-22.22,9.57-22.88,21.64h-4.95c.24-5.23,1.92-10.08,4.65-14.17-2.72-1.48-5.84-2.32-9.16-2.32-9.68,0-17.69,7.17-19,16.5H0c1.01-8.75,6.86-16.03,14.8-19.09-4.07-2.71-6.75-7.34-6.75-12.59,0-8.35,6.77-15.12,15.12-15.12s15.12,6.77,15.12,15.12c0,5.25-2.68,9.88-6.75,12.59,1.17.45,2.29.99,3.36,1.62,2.92-3.21,6.59-5.73,10.72-7.3-4.43-3.11-7.32-8.26-7.32-14.08C38.31,7.7,46.01,0,55.52,0h0ZM126.52,32.3c3.78,0,6.98-2.89,6.98-6.9s-3.23-6.98-6.98-6.98-6.98,2.91-6.98,6.98,3.17,6.9,6.98,6.9h0ZM126.52,29.73c-2.47,0-4.37-1.88-4.37-4.33s1.9-4.43,4.37-4.43,4.37,1.92,4.37,4.43-1.92,4.33-4.37,4.33h0ZM145.36,31.75l-4.12-5.47c2.05-.47,3.23-1.9,3.23-3.88,0-2.38-1.98-3.76-5.02-3.76h-3.74c-.19,0-.27.09-.27.25v12.98c0,.19.1.27.25.27h2.15c.19,0,.27-.09.27-.25v-5.19h.46l3.55,5.21c.11.17.25.23.4.23h2.66c.21,0,.3-.06.3-.15,0-.06-.04-.13-.11-.23h0ZM138.1,20.67h1.18c1.62,0,2.57.76,2.57,2s-.93,2.05-2.57,2.05h-1.18v-4.05h0ZM152.55,32.3c3.63,0,6.37-2.36,6.37-6.35,0-.4-.02-.76-.08-1.1-.02-.19-.13-.27-.29-.27h-5.57c-.19,0-.27.09-.27.25v1.71c0,.19.09.27.25.27h3.44c-.04,1.88-1.71,3.08-3.74,3.08-2.3,0-4.28-1.75-4.28-4.51s2.07-4.56,4.7-4.56c1.35,0,2.74.36,3.74.89.15.08.29.11.38.11.17,0,.25-.15.25-.44v-1.63c0-.19-.08-.32-.21-.4-.97-.57-2.76-.91-4.16-.91-4.26,0-7.45,2.93-7.45,6.92s3.04,6.94,6.92,6.94h0ZM171.46,31.9l-5.15-13.04c-.08-.17-.19-.25-.34-.25h-1.43c-.19,0-.3.1-.36.23l-5.19,13.04c-.08.17,0,.25.15.25h2.34c.19,0,.3-.09.34-.23.3-.82.61-1.62.89-2.43h4.83c.3.8.59,1.62.87,2.41.08.17.19.25.34.25h2.53c.13,0,.19-.06.19-.13,0-.02,0-.06-.02-.09h0ZM163.5,27.3c.55-1.56,1.1-3.21,1.67-5.02.55,1.81,1.08,3.46,1.63,5.02h-3.31ZM184.27,18.63h-2.05c-.19,0-.27.09-.27.25v8.73l-6.82-8.76c-.13-.15-.27-.21-.42-.21h-1.52c-.19,0-.27.09-.27.25v12.98c0,.19.1.27.25.27h2.05c.19,0,.27-.09.27-.25v-8.63l6.82,8.67c.13.15.27.21.42.21h1.52c.19,0,.27-.09.27-.25v-12.98c0-.19-.1-.27-.25-.27h0ZM187.64,32.13h2.26c.19,0,.27-.09.27-.25v-12.98c0-.19-.09-.27-.25-.27h-2.26c-.19,0-.27.09-.27.25v12.98c0,.19.1.27.25.27h0ZM195.6,30.02l6.27-9.88c.1-.17.13-.32.13-.47v-.76c0-.19-.1-.27-.25-.27h-8.73c-.19,0-.27.09-.27.25v1.6c0,.19.09.27.25.27h5.84l-6.27,9.88c-.1.17-.13.32-.13.48v.76c0,.19.09.27.25.27h9.26c.19,0,.27-.09.27-.25v-1.6c0-.19-.1-.27-.25-.27h-6.37ZM215.73,31.9l-5.15-13.04c-.08-.17-.19-.25-.34-.25h-1.43c-.19,0-.3.1-.36.23l-5.19,13.04c-.08.17,0,.25.15.25h2.34c.19,0,.3-.09.34-.23.3-.82.61-1.62.89-2.43h4.83c.3.8.59,1.62.87,2.41.08.17.19.25.34.25h2.53c.13,0,.19-.06.19-.13,0-.02,0-.06-.02-.09h0ZM207.77,27.3c.55-1.56,1.1-3.21,1.67-5.02.55,1.81,1.08,3.46,1.63,5.02h-3.31ZM226.17,29.2c-.8.36-1.79.65-2.81.65-2.62,0-4.73-1.71-4.73-4.52s2.09-4.45,4.73-4.45c.97,0,1.9.21,2.6.55.13.06.23.09.3.09.17,0,.23-.13.23-.38v-1.79c0-.19-.1-.3-.23-.36-.72-.27-1.88-.55-3.16-.55-3.86,0-7.24,2.62-7.24,6.9,0,3.84,2.62,6.35,5.91,6.86l-.89,1.56.06.06c.21-.09.51-.15.8-.15.46,0,.84.19.84.51,0,.3-.38.49-.87.49-.44,0-.82-.11-1.14-.25-.13-.06-.19,0-.19.13v.68c0,.15.06.25.19.3.32.13.8.23,1.41.23,1.22,0,2.19-.61,2.19-1.62,0-.8-.67-1.29-1.58-1.31l.32-.55h.11c1.41,0,2.57-.29,3.44-.68.15-.08.23-.21.23-.36v-1.73c0-.29-.08-.42-.23-.42-.08,0-.17.04-.29.09h0ZM230.61,17.38h1.08c.09,0,.13-.04.13-.13.06-.53.38-.8.84-.8.32,0,.63.21.97.44.44.27.91.59,1.5.59,1.16,0,1.92-1.18,1.98-2.62,0-.1-.04-.13-.13-.13h-1.12c-.09,0-.13.04-.13.13-.04.51-.28.86-.72.86-.28,0-.59-.19-.91-.42-.44-.29-.95-.63-1.56-.63-1.33,0-2,1.2-2.05,2.59,0,.1.04.13.13.13h0ZM240.04,31.9l-5.15-13.04c-.08-.17-.19-.25-.34-.25h-1.43c-.19,0-.3.1-.36.23l-5.19,13.04c-.08.17,0,.25.15.25h2.34c.19,0,.3-.09.34-.23.3-.82.61-1.62.89-2.43h4.83c.3.8.59,1.62.87,2.41.08.17.19.25.34.25h2.53c.13,0,.19-.06.19-.13,0-.02,0-.06-.02-.09h0ZM232.08,27.3c.55-1.56,1.1-3.21,1.67-5.02.55,1.81,1.08,3.46,1.63,5.02h-3.31ZM247.76,32.3c3.78,0,6.98-2.89,6.98-6.9s-3.23-6.98-6.98-6.98-6.98,2.91-6.98,6.98,3.17,6.9,6.98,6.9h0ZM247.76,29.73c-2.47,0-4.37-1.88-4.37-4.33s1.9-4.43,4.37-4.43,4.37,1.92,4.37,4.43-1.92,4.33-4.37,4.33h0ZM134.92,55.56l-6.53-16.53c-.1-.22-.24-.31-.43-.31h-1.81c-.24,0-.39.12-.46.29l-6.58,16.53c-.1.22,0,.31.19.31h2.96c.24,0,.39-.12.43-.29.39-1.04.77-2.05,1.13-3.08h6.12c.39,1.01.75,2.05,1.11,3.06.1.22.24.31.43.31h3.2c.17,0,.24-.07.24-.17,0-.02,0-.07-.02-.12h0ZM124.82,49.73c.7-1.97,1.4-4.07,2.12-6.36.7,2.29,1.37,4.38,2.07,6.36h-4.19ZM149.35,55.37l-5.23-6.94c2.6-.6,4.1-2.41,4.1-4.91,0-3.01-2.51-4.77-6.36-4.77h-4.75c-.24,0-.34.12-.34.31v16.45c0,.24.12.34.31.34h2.72c.24,0,.34-.12.34-.31v-6.58h.58l4.5,6.6c.14.22.31.29.51.29h3.37c.27,0,.39-.07.39-.19,0-.07-.05-.17-.14-.29h0ZM140.14,41.33h1.49c2.05,0,3.25.96,3.25,2.53s-1.18,2.6-3.25,2.6h-1.49v-5.13h0ZM165.82,38.75h-2.6c-.24,0-.34.12-.34.31v11.06l-8.65-11.11c-.17-.19-.34-.27-.53-.27h-1.93c-.24,0-.34.12-.34.31v16.45c0,.24.12.34.31.34h2.6c.24,0,.34-.12.34-.31v-10.94l8.65,10.98c.17.19.34.27.53.27h1.93c.24,0,.34-.12.34-.31v-16.45c0-.24-.12-.34-.31-.34h0ZM177.43,56.07c4.79,0,8.84-3.66,8.84-8.74s-4.1-8.84-8.84-8.84-8.84,3.69-8.84,8.84,4.02,8.74,8.84,8.74h0ZM177.43,52.82c-3.13,0-5.54-2.38-5.54-5.49s2.41-5.61,5.54-5.61,5.54,2.43,5.54,5.61-2.43,5.49-5.54,5.49h0ZM203.11,38.75h-2.6c-.24,0-.34.12-.34.31v11.06l-8.65-11.11c-.17-.19-.34-.27-.53-.27h-1.93c-.24,0-.34.12-.34.31v16.45c0,.24.12.34.31.34h2.6c.24,0,.34-.12.34-.31v-10.94l8.65,10.98c.17.19.34.27.53.27h1.93c.24,0,.34-.12.34-.31v-16.45c0-.24-.12-.34-.31-.34h0ZM211.71,39.06v16.45c0,.24.12.34.31.34h4.29c6.26,0,10.24-3.47,10.24-8.62s-4-8.48-10.24-8.48h-4.26c-.24,0-.34.12-.34.31h0ZM216.36,41.61c4.02,0,6.62,2.17,6.62,5.71s-2.6,5.66-6.62,5.66l-1.18.02v-11.39h1.18ZM238.67,41.49c.24,0,.34-.12.34-.31v-2.1c0-.24-.12-.34-.31-.34h-9.32c-.24,0-.34.12-.34.31v16.45c0,.24.12.34.31.34h9.32c.24,0,.34-.12.34-.31v-2.1c0-.24-.12-.34-.31-.34h-6.29v-4.67h5.44c.24,0,.34-.12.34-.31v-2.1c0-.24-.12-.34-.31-.34h-5.47v-4.19h6.26ZM266.49,55.54l-3.23-16.48c-.05-.24-.19-.34-.39-.34h-2.41c-.24,0-.39.12-.43.29l-3.9,11.32-4.05-11.3c-.1-.22-.24-.31-.43-.31h-2.67c-.24,0-.36.12-.39.31l-3.23,16.79s0,.02.02.02h3.04c.24,0,.36-.12.39-.31l2-11.11,3.88,10.86c.1.22.24.31.43.31h1.73c.24,0,.39-.12.43-.29l3.78-11.13,1.83,11.32c.02.24.17.34.36.34h2.94c.22,0,.29-.1.29-.24v-.07h0ZM278.1,41.49c.24,0,.34-.12.34-.31v-2.1c0-.24-.12-.34-.31-.34h-9.32c-.24,0-.34.12-.34.31v16.45c0,.24.12.34.31.34h9.32c.24,0,.34-.12.34-.31v-2.1c0-.24-.12-.34-.31-.34h-6.29v-4.67h5.44c.24,0,.34-.12.34-.31v-2.1c0-.24-.12-.34-.31-.34h-5.47v-4.19h6.26ZM290.58,52.84h-5.85v-13.76c0-.24-.12-.34-.31-.34h-2.84c-.24,0-.34.12-.34.31v16.45c0,.24.12.34.31.34h9.01c.24,0,.34-.12.34-.31v-2.36c0-.24-.12-.34-.31-.34h0ZM302.41,52.84h-5.85v-13.76c0-.24-.12-.34-.31-.34h-2.84c-.24,0-.34.12-.34.31v16.45c0,.24.12.34.31.34h9.01c.24,0,.34-.12.34-.31v-2.36c0-.24-.12-.34-.31-.34h0ZM312.04,56.07c4.79,0,8.84-3.66,8.84-8.74s-4.1-8.84-8.84-8.84-8.84,3.69-8.84,8.84,4.02,8.74,8.84,8.74h0ZM312.04,52.82c-3.13,0-5.54-2.38-5.54-5.49s2.41-5.61,5.54-5.61,5.54,2.43,5.54,5.61-2.43,5.49-5.54,5.49h0ZM87.86,13.43c6.05,0,10.96,4.91,10.96,10.96s-4.91,10.96-10.96,10.96-10.96-4.91-10.96-10.96,4.91-10.96,10.96-10.96h0ZM23.17,13.43c6.05,0,10.96,4.91,10.96,10.96s-4.91,10.96-10.96,10.96-10.96-4.91-10.96-10.96,4.91-10.96,10.96-10.96h0ZM55.52,29.49h.04c6.76-.02,12.24-5.51,12.24-12.28s-5.5-12.28-12.28-12.28-12.28,5.5-12.28,12.28,5.47,12.26,12.24,12.28h.04Z"/>
  </g>
</svg>