<?xml version="1.0" encoding="UTF-8"?>
<svg id="Camada_2" xmlns="http://www.w3.org/2000/svg" version="1.1" viewBox="0 0 320.9 56.1">
  <!-- Generator: Adobe Illustrator 29.6.1, SVG Export Plug-In . SVG Version: 2.1.1 Build 9)  -->
  <defs>
    <style>
      .st0 {
        fill: #90a1b9;
        fill-rule: evenodd;
      }
    </style>
  </defs>
  <g id="Camada_1-2">
    <path class="st0" d="M55.5,0c9.5,0,17.2,7.7,17.2,17.2s-2.9,11-7.3,14.1c4.1,1.6,7.8,4.1,10.7,7.3,1.1-.6,2.2-1.2,3.4-1.6-4.1-2.7-6.8-7.3-6.8-12.6,0-8.4,6.8-15.1,15.1-15.1s15.1,6.8,15.1,15.1-2.7,9.9-6.8,12.6c7.9,3.1,13.8,10.3,14.8,19.1h-4.2c-1.3-9.3-9.3-16.5-19-16.5s-6.4.8-9.2,2.3c2.7,4.1,4.4,8.9,4.7,14.2h-4.9c-.7-12.1-10.7-21.6-22.9-21.6s-22.2,9.6-22.9,21.6h-5c.2-5.2,1.9-10.1,4.7-14.2-2.7-1.5-5.8-2.3-9.2-2.3-9.7,0-17.7,7.2-19,16.5H0c1-8.8,6.9-16,14.8-19.1-4.1-2.7-6.8-7.3-6.8-12.6,0-8.4,6.8-15.1,15.1-15.1s15.1,6.8,15.1,15.1-2.7,9.9-6.8,12.6c1.2.5,2.3,1,3.4,1.6,2.9-3.2,6.6-5.7,10.7-7.3-4.4-3.1-7.3-8.3-7.3-14.1,0-9.5,7.7-17.2,17.2-17.2h0ZM126.5,32.3c3.8,0,7-2.9,7-6.9s-3.2-7-7-7-7,2.9-7,7,3.2,6.9,7,6.9h0ZM126.5,29.7c-2.5,0-4.4-1.9-4.4-4.3s1.9-4.4,4.4-4.4,4.4,1.9,4.4,4.4-1.9,4.3-4.4,4.3h0ZM145.4,31.8l-4.1-5.5c2.1-.5,3.2-1.9,3.2-3.9s-2-3.8-5-3.8h-3.7c-.2,0-.3,0-.3.2v13c0,.2.1.3.2.3h2.1c.2,0,.3,0,.3-.2v-5.2h.5l3.6,5.2c.1.2.2.2.4.2h2.7c.2,0,.3,0,.3-.1s0-.1-.1-.2h0ZM138.1,20.7h1.2c1.6,0,2.6.8,2.6,2s-.9,2-2.6,2h-1.2v-4.1h0ZM152.6,32.3c3.6,0,6.4-2.4,6.4-6.4s0-.8,0-1.1c0-.2-.1-.3-.3-.3h-5.6c-.2,0-.3,0-.3.2v1.7c0,.2,0,.3.2.3h3.4c0,1.9-1.7,3.1-3.7,3.1s-4.3-1.8-4.3-4.5,2.1-4.6,4.7-4.6,2.7.4,3.7.9c.1,0,.3.1.4.1.2,0,.2-.1.2-.4v-1.6c0-.2,0-.3-.2-.4-1-.6-2.8-.9-4.2-.9-4.3,0-7.4,2.9-7.4,6.9s3,6.9,6.9,6.9h0ZM171.5,31.9l-5.1-13c0-.2-.2-.2-.3-.2h-1.4c-.2,0-.3.1-.4.2l-5.2,13c0,.2,0,.2.1.2h2.3c.2,0,.3,0,.3-.2.3-.8.6-1.6.9-2.4h4.8c.3.8.6,1.6.9,2.4,0,.2.2.2.3.2h2.5c.1,0,.2,0,.2-.1s0,0,0,0h0ZM163.5,27.3c.6-1.6,1.1-3.2,1.7-5,.6,1.8,1.1,3.5,1.6,5h-3.3,0ZM184.3,18.6h-2.1c-.2,0-.3,0-.3.2v8.7l-6.8-8.8c-.1-.1-.3-.2-.4-.2h-1.5c-.2,0-.3,0-.3.2v13c0,.2.1.3.2.3h2.1c.2,0,.3,0,.3-.2v-8.6l6.8,8.7c.1.1.3.2.4.2h1.5c.2,0,.3,0,.3-.2v-13c0-.2-.1-.3-.2-.3h0ZM187.6,32.1h2.3c.2,0,.3,0,.3-.2v-13c0-.2,0-.3-.2-.3h-2.3c-.2,0-.3,0-.3.2v13c0,.2.1.3.2.3h0ZM195.6,30l6.3-9.9c.1-.2.1-.3.1-.5v-.8c0-.2-.1-.3-.2-.3h-8.7c-.2,0-.3,0-.3.2v1.6c0,.2,0,.3.2.3h5.8l-6.3,9.9c-.1.2-.1.3-.1.5v.8c0,.2,0,.3.2.3h9.3c.2,0,.3,0,.3-.2v-1.6c0-.2-.1-.3-.2-.3h-6.4ZM215.7,31.9l-5.1-13c0-.2-.2-.2-.3-.2h-1.4c-.2,0-.3.1-.4.2l-5.2,13c0,.2,0,.2.1.2h2.3c.2,0,.3,0,.3-.2.3-.8.6-1.6.9-2.4h4.8c.3.8.6,1.6.9,2.4,0,.2.2.2.3.2h2.5c.1,0,.2,0,.2-.1s0,0,0,0h0ZM207.8,27.3c.6-1.6,1.1-3.2,1.7-5,.6,1.8,1.1,3.5,1.6,5h-3.3,0ZM226.2,29.2c-.8.4-1.8.6-2.8.6-2.6,0-4.7-1.7-4.7-4.5s2.1-4.4,4.7-4.4,1.9.2,2.6.5c.1,0,.2,0,.3,0,.2,0,.2-.1.2-.4v-1.8c0-.2-.1-.3-.2-.4-.7-.3-1.9-.5-3.2-.5-3.9,0-7.2,2.6-7.2,6.9s2.6,6.4,5.9,6.9l-.9,1.6h0c.2,0,.5,0,.8,0,.5,0,.8.2.8.5s-.4.5-.9.5-.8-.1-1.1-.2c-.1,0-.2,0-.2.1v.7c0,.2,0,.2.2.3.3.1.8.2,1.4.2,1.2,0,2.2-.6,2.2-1.6s-.7-1.3-1.6-1.3l.3-.5h.1c1.4,0,2.6-.3,3.4-.7.1,0,.2-.2.2-.4v-1.7c0-.3,0-.4-.2-.4s-.2,0-.3,0h0ZM230.6,17.4h1.1c0,0,.1,0,.1-.1,0-.5.4-.8.8-.8s.6.2,1,.4c.4.3.9.6,1.5.6,1.2,0,1.9-1.2,2-2.6,0-.1,0-.1-.1-.1h-1.1c0,0-.1,0-.1.1,0,.5-.3.9-.7.9s-.6-.2-.9-.4c-.4-.3-.9-.6-1.6-.6-1.3,0-2,1.2-2.1,2.6,0,.1,0,.1.1.1h0ZM240,31.9l-5.1-13c0-.2-.2-.2-.3-.2h-1.4c-.2,0-.3.1-.4.2l-5.2,13c0,.2,0,.2.1.2h2.3c.2,0,.3,0,.3-.2.3-.8.6-1.6.9-2.4h4.8c.3.8.6,1.6.9,2.4,0,.2.2.2.3.2h2.5c.1,0,.2,0,.2-.1s0,0,0,0h0ZM232.1,27.3c.6-1.6,1.1-3.2,1.7-5,.6,1.8,1.1,3.5,1.6,5h-3.3,0ZM247.8,32.3c3.8,0,7-2.9,7-6.9s-3.2-7-7-7-7,2.9-7,7,3.2,6.9,7,6.9h0ZM247.8,29.7c-2.5,0-4.4-1.9-4.4-4.3s1.9-4.4,4.4-4.4,4.4,1.9,4.4,4.4-1.9,4.3-4.4,4.3h0ZM134.9,55.6l-6.5-16.5c-.1-.2-.2-.3-.4-.3h-1.8c-.2,0-.4.1-.5.3l-6.6,16.5c0,.2,0,.3.2.3h3c.2,0,.4-.1.4-.3.4-1,.8-2,1.1-3.1h6.1c.4,1,.8,2,1.1,3.1.1.2.2.3.4.3h3.2c.2,0,.2,0,.2-.2s0,0,0-.1h0ZM124.8,49.7c.7-2,1.4-4.1,2.1-6.4.7,2.3,1.4,4.4,2.1,6.4h-4.2ZM149.4,55.4l-5.2-6.9c2.6-.6,4.1-2.4,4.1-4.9s-2.5-4.8-6.4-4.8h-4.8c-.2,0-.3.1-.3.3v16.5c0,.2.1.3.3.3h2.7c.2,0,.3-.1.3-.3v-6.6h.6l4.5,6.6c.1.2.3.3.5.3h3.4c.3,0,.4,0,.4-.2s0-.2-.1-.3h0ZM140.1,41.3h1.5c2.1,0,3.2,1,3.2,2.5s-1.2,2.6-3.2,2.6h-1.5v-5.1h0ZM165.8,38.8h-2.6c-.2,0-.3.1-.3.3v11.1l-8.6-11.1c-.2-.2-.3-.3-.5-.3h-1.9c-.2,0-.3.1-.3.3v16.5c0,.2.1.3.3.3h2.6c.2,0,.3-.1.3-.3v-10.9l8.6,11c.2.2.3.3.5.3h1.9c.2,0,.3-.1.3-.3v-16.5c0-.2-.1-.3-.3-.3h0ZM177.4,56.1c4.8,0,8.8-3.7,8.8-8.7s-4.1-8.8-8.8-8.8-8.8,3.7-8.8,8.8,4,8.7,8.8,8.7h0ZM177.4,52.8c-3.1,0-5.5-2.4-5.5-5.5s2.4-5.6,5.5-5.6,5.5,2.4,5.5,5.6-2.4,5.5-5.5,5.5h0ZM203.1,38.8h-2.6c-.2,0-.3.1-.3.3v11.1l-8.6-11.1c-.2-.2-.3-.3-.5-.3h-1.9c-.2,0-.3.1-.3.3v16.5c0,.2.1.3.3.3h2.6c.2,0,.3-.1.3-.3v-10.9l8.6,11c.2.2.3.3.5.3h1.9c.2,0,.3-.1.3-.3v-16.5c0-.2-.1-.3-.3-.3h0ZM211.7,39.1v16.5c0,.2.1.3.3.3h4.3c6.3,0,10.2-3.5,10.2-8.6s-4-8.5-10.2-8.5h-4.3c-.2,0-.3.1-.3.3h0ZM216.4,41.6c4,0,6.6,2.2,6.6,5.7s-2.6,5.7-6.6,5.7h-1.2s0-11.4,0-11.4h1.2ZM238.7,41.5c.2,0,.3-.1.3-.3v-2.1c0-.2-.1-.3-.3-.3h-9.3c-.2,0-.3.1-.3.3v16.5c0,.2.1.3.3.3h9.3c.2,0,.3-.1.3-.3v-2.1c0-.2-.1-.3-.3-.3h-6.3v-4.7h5.4c.2,0,.3-.1.3-.3v-2.1c0-.2-.1-.3-.3-.3h-5.5v-4.2h6.3,0ZM266.5,55.5l-3.2-16.5c0-.2-.2-.3-.4-.3h-2.4c-.2,0-.4.1-.4.3l-3.9,11.3-4.1-11.3c-.1-.2-.2-.3-.4-.3h-2.7c-.2,0-.4.1-.4.3l-3.2,16.8s0,0,0,0h3c.2,0,.4-.1.4-.3l2-11.1,3.9,10.9c.1.2.2.3.4.3h1.7c.2,0,.4-.1.4-.3l3.8-11.1,1.8,11.3c0,.2.2.3.4.3h2.9c.2,0,.3,0,.3-.2h0c0,0,0,0,0,0ZM278.1,41.5c.2,0,.3-.1.3-.3v-2.1c0-.2-.1-.3-.3-.3h-9.3c-.2,0-.3.1-.3.3v16.5c0,.2.1.3.3.3h9.3c.2,0,.3-.1.3-.3v-2.1c0-.2-.1-.3-.3-.3h-6.3v-4.7h5.4c.2,0,.3-.1.3-.3v-2.1c0-.2-.1-.3-.3-.3h-5.5v-4.2h6.3ZM290.6,52.8h-5.9v-13.8c0-.2-.1-.3-.3-.3h-2.8c-.2,0-.3.1-.3.3v16.5c0,.2.1.3.3.3h9c.2,0,.3-.1.3-.3v-2.4c0-.2-.1-.3-.3-.3h0ZM302.4,52.8h-5.9v-13.8c0-.2-.1-.3-.3-.3h-2.8c-.2,0-.3.1-.3.3v16.5c0,.2.1.3.3.3h9c.2,0,.3-.1.3-.3v-2.4c0-.2-.1-.3-.3-.3h0ZM312,56.1c4.8,0,8.8-3.7,8.8-8.7s-4.1-8.8-8.8-8.8-8.8,3.7-8.8,8.8,4,8.7,8.8,8.7h0ZM312,52.8c-3.1,0-5.5-2.4-5.5-5.5s2.4-5.6,5.5-5.6,5.5,2.4,5.5,5.6-2.4,5.5-5.5,5.5h0ZM87.9,13.4c6.1,0,11,4.9,11,11s-4.9,11-11,11-11-4.9-11-11,4.9-11,11-11h0ZM23.2,13.4c6.1,0,11,4.9,11,11s-4.9,11-11,11-11-4.9-11-11,4.9-11,11-11h0ZM55.5,29.5h0c6.8,0,12.2-5.5,12.2-12.3s-5.5-12.3-12.3-12.3-12.3,5.5-12.3,12.3,5.5,12.3,12.2,12.3c0,0,0,0,0,0Z"/>
  </g>
</svg>